<?xml version="1.0" standalone="no"?>
<!DOCTYPE svg PUBLIC "-//W3C//DTD SVG 20010904//EN"
 "http://www.w3.org/TR/2001/REC-SVG-20010904/DTD/svg10.dtd">
<svg version="1.0" xmlns="http://www.w3.org/2000/svg"
 width="435.000000pt" height="480.000000pt" viewBox="0 0 435.000000 480.000000"
 preserveAspectRatio="xMidYMid meet">

<g transform="translate(0.000000,480.000000) scale(0.100000,-0.100000)"
fill="#000000" stroke="none">
<path d="M2215 4082 c-53 -51 -83 -72 -118 -81 -65 -19 -61 -35 7 -28 71 7
142 39 189 85 38 37 45 60 25 80 -20 20 -30 14 -103 -56z"/>
<path d="M2411 3944 c-18 -20 -52 -45 -75 -55 l-41 -19 38 0 c65 0 157 60 144
95 -10 24 -29 18 -66 -21z"/>
<path d="M1909 3801 c-37 -38 -53 -65 -68 -116 -25 -79 -27 -200 -6 -259 12
-36 12 -41 -3 -53 -14 -10 -95 -44 -182 -76 -11 -4 -12 -6 -1 -6 11 -1 11 -4
1 -16 -11 -13 -6 -15 33 -15 46 0 69 -13 42 -23 -8 -4 -63 -13 -122 -22 -128
-18 -157 -35 -161 -89 -3 -39 18 -76 45 -76 20 0 17 -6 -37 -73 -50 -61 -116
-182 -122 -222 -3 -17 4 -20 40 -23 35 -3 42 -6 38 -20 -37 -116 -33 -354 5
-378 6 -3 20 3 32 14 l21 21 34 -50 c18 -28 31 -54 27 -57 -3 -4 -21 -12 -38
-19 -18 -6 -24 -12 -14 -12 25 -1 21 -14 -13 -39 -17 -13 -30 -32 -30 -43 0
-24 0 -24 -129 5 -70 15 -76 15 -110 -1 -30 -15 -41 -31 -73 -107 -21 -49 -36
-91 -34 -94 2 -2 7 6 11 17 3 12 11 21 17 21 18 0 68 -61 68 -84 0 -32 -69
-143 -123 -198 l-48 -48 38 0 c87 1 178 72 254 200 23 38 44 70 48 70 4 0 17
-10 29 -23 18 -19 20 -29 13 -53 -15 -54 -62 -135 -103 -180 l-41 -44 29 0
c80 1 178 89 240 218 23 46 40 70 47 66 24 -14 47 -37 47 -48 0 -6 -4 -6 -8 2
-6 8 -13 -1 -21 -30 -7 -24 -24 -62 -37 -85 -26 -45 -19 -54 24 -29 22 12 81
145 113 253 12 41 36 37 72 -13 36 -51 75 -129 78 -157 5 -43 -21 -133 -46
-157 -37 -38 -49 -47 -63 -44 -7 1 -8 0 -2 -3 5 -2 10 -11 10 -19 0 -8 7 -14
15 -14 40 0 -16 -71 -83 -105 -19 -9 -32 -19 -29 -22 3 -2 15 1 27 7 12 6 24
9 27 6 10 -10 -48 -55 -115 -89 -34 -18 -75 -38 -90 -46 -15 -8 -31 -20 -37
-27 -22 -27 -130 -37 -165 -15 -23 15 -24 15 -12 -1 43 -55 435 -205 417 -160
-21 51 -34 108 -29 126 11 36 46 66 76 66 18 0 28 5 28 14 0 26 50 56 92 56
31 0 46 -7 71 -32 25 -25 39 -31 64 -29 48 4 83 -35 83 -91 0 -47 -27 -115
-53 -137 -10 -7 -17 -17 -17 -20 0 -11 170 -31 246 -29 58 1 61 2 19 5 -76 5
-78 7 -54 48 l21 35 -22 18 c-20 16 -21 21 -11 41 7 12 27 28 44 34 30 10 31
11 9 16 -22 6 -23 9 -26 161 -4 165 -14 212 -70 330 -32 69 -32 77 2 113 26
29 14 29 -20 0 -15 -13 -17 -9 -28 42 -25 120 14 206 117 257 57 28 69 30 135
26 86 -6 143 -31 206 -91 54 -53 55 -29 2 47 -22 32 -38 61 -36 65 3 4 -14 26
-37 48 -38 37 -50 42 -117 53 -41 6 -75 12 -77 14 -1 1 46 3 105 3 59 0 122 4
140 8 l33 7 -46 30 c-60 40 -69 57 -11 20 99 -63 206 -68 313 -13 59 29 100
63 57 47 -22 -8 -16 -3 46 45 55 42 59 45 94 91 16 22 26 44 22 53 -3 9 -2 13
4 10 6 -3 10 -4 10 -2 0 3 6 20 14 39 13 30 13 35 1 35 -8 0 -12 -4 -9 -9 3
-4 -1 -8 -9 -8 -7 0 -23 -11 -34 -24 -29 -33 -88 -31 -87 2 0 17 -3 21 -15 16
-40 -16 -82 -26 -156 -37 -98 -15 -255 -5 -267 17 -5 8 -24 20 -43 26 -19 6
-32 16 -29 22 4 6 -3 8 -17 6 -13 -2 -33 5 -43 14 -11 10 -25 18 -32 18 -7 0
-16 10 -19 21 -5 15 -9 18 -15 9 -5 -7 -9 1 -13 21 -2 19 0 40 5 47 7 8 7 12
-1 12 -6 0 -11 5 -11 11 0 6 8 8 18 5 15 -5 15 -5 1 7 -15 11 -14 15 7 47 28
41 31 97 8 146 -17 36 -98 124 -114 124 -6 0 -10 7 -10 16 0 12 6 15 21 11 12
-3 22 0 26 9 3 8 12 14 20 14 8 0 26 9 41 20 27 22 49 24 237 21 84 -2 108 -6
148 -26 26 -14 45 -20 41 -14 -3 6 5 3 20 -6 14 -9 23 -21 20 -26 -5 -8 3 -11
22 -8 4 0 11 -5 15 -13 5 -7 9 -8 9 -2 0 18 -41 65 -51 58 -5 -3 -8 0 -7 8 2
7 -3 12 -10 10 -8 -1 -11 2 -8 7 10 16 -75 81 -159 121 -99 48 -171 62 -283
59 -101 -3 -116 2 -108 40 5 20 2 18 -15 -12 -11 -21 -25 -40 -32 -41 -7 -2
-59 -18 -115 -36 -101 -30 -105 -31 -124 -13 -30 27 -58 87 -69 151 -20 105
25 241 100 303 20 16 31 29 26 29 -5 0 -30 -22 -56 -49z m612 -1598 c13 -16
12 -17 -3 -4 -10 7 -18 15 -18 17 0 8 8 3 21 -13z m-408 -441 c53 -141 77
-234 77 -291 0 -56 0 -56 -15 -28 -8 16 -26 43 -40 59 -46 54 -88 158 -65 158
5 0 10 18 10 40 0 29 -5 43 -19 52 -16 10 -18 15 -8 27 9 12 9 13 0 7 -12 -6
-15 -1 -12 22 1 4 6 6 13 4 6 -2 8 0 4 4 -4 4 -3 13 4 21 15 18 18 13 51 -75z"/>
<path d="M2105 3790 c22 -70 -75 -108 -109 -42 l-14 26 -16 -32 c-21 -41 -21
-134 1 -179 61 -129 233 -68 233 83 0 39 26 85 69 121 14 13 22 23 17 23 -5 0
-26 -18 -47 -41 l-38 -41 -15 30 c-16 31 -61 72 -78 72 -5 0 -6 -9 -3 -20z"/>
<path d="M2415 3729 c0 -18 -7 -36 -16 -42 -23 -15 -64 -1 -76 25 -10 23 -10
23 -26 -9 -22 -42 -22 -127 0 -163 51 -86 164 -60 193 44 16 59 6 107 -29 145
-37 39 -46 39 -46 0z"/>
<path d="M2970 3176 c-14 -37 -13 -41 10 -86 19 -37 24 -40 60 -40 22 0 40 3
40 6 0 14 -60 111 -79 128 -20 18 -21 18 -31 -8z m59 -50 c-3 -3 -11 5 -18 17
-13 21 -12 21 5 5 10 -10 16 -20 13 -22z"/>
<path d="M2577 3162 c-10 -11 -17 -36 -17 -61 0 -34 6 -49 29 -72 61 -61 141
-25 128 58 -13 75 -98 121 -140 75z"/>
<path d="M2932 2720 c0 -19 2 -27 5 -17 2 9 2 25 0 35 -3 9 -5 1 -5 -18z"/>
<path d="M3096 2727 c3 -10 9 -15 12 -12 3 3 0 11 -7 18 -10 9 -11 8 -5 -6z"/>
<path d="M2605 2132 c11 -10 21 -24 23 -31 4 -19 39 -62 49 -61 4 1 9 -4 12
-11 2 -8 -1 -9 -10 -3 -11 6 -12 5 -2 -7 7 -9 23 -45 37 -80 25 -68 20 -64
126 -97 32 -10 33 -10 16 3 -11 8 -24 15 -30 15 -5 0 -7 3 -3 6 3 4 0 19 -8
34 -16 31 -7 80 21 111 16 17 15 18 -6 14 -22 -4 -60 -40 -60 -56 0 -5 -11 -3
-25 3 -14 6 -23 13 -20 16 2 3 -3 11 -13 18 -16 12 -15 13 5 14 32 0 55 27 43
50 -14 27 -51 29 -74 5 -14 -14 -17 -15 -13 -4 7 21 -1 31 -48 57 -30 17 -35
18 -20 4z"/>
<path d="M2961 2047 c2 -1 13 -9 24 -17 19 -14 19 -14 6 3 -7 9 -18 17 -24 17
-6 0 -8 -1 -6 -3z"/>
<path d="M2695 1314 c-11 -20 -21 -31 -23 -25 -2 6 -21 -15 -42 -46 -44 -69
-89 -113 -148 -146 -40 -23 -42 -25 -20 -31 37 -9 326 -7 333 3 3 5 -4 13 -15
16 -21 7 -44 47 -55 98 -3 15 -10 25 -15 22 -14 -8 -13 91 1 117 6 11 9 21 7
23 -2 3 -13 -12 -23 -31z"/>
<path d="M2676 1323 c-6 -14 -5 -15 5 -6 7 7 10 15 7 18 -3 3 -9 -2 -12 -12z"/>
<path d="M1220 1316 c0 -2 8 -10 18 -17 15 -13 16 -12 3 4 -13 16 -21 21 -21
13z"/>
</g>
</svg>
